<svg width="123" height="123" viewBox="0 0 123 123" fill="none" xmlns="http://www.w3.org/2000/svg">
<circle cx="61.2258" cy="61.2258" r="59.7258" stroke="#A6915C" stroke-width="3"/>
<path d="M112.5 61.5C112.5 89.6532 89.4561 112.5 61 112.5C32.5439 112.5 9.5 89.6532 9.5 61.5C9.5 33.3469 32.5439 10.5 61 10.5C89.4561 10.5 112.5 33.3469 112.5 61.5Z" stroke="#A6915C" stroke-width="3"/>
<path d="M62 40V82.7742" stroke="#A6915C" stroke-width="3"/>
<path d="M40 61L82.7742 61" stroke="#A6915C" stroke-width="3"/>
<path d="M53.6802 101.714C38.4163 99.0145 26.066 87.8423 21.6316 73.2137M100.991 52.9637C97.778 37.2081 85.5749 24.7362 69.9912 21.1731M21 51.6005C24.6852 36.2287 36.9848 24.2207 52.4912 21M99.7402 74.2137C95.2117 87.8785 83.7238 98.3573 69.4912 101.423" stroke="#A6915C" stroke-width="1.5" stroke-miterlimit="3.99933" stroke-dasharray="6 6"/>
<path d="M65.3567 65.2007L43.2574 91.339L54.8442 59.1312L65.3567 65.2007Z" fill="white" stroke="#A6915C" stroke-width="3" stroke-linejoin="round"/>
<path d="M56.7322 55.8618L78.8315 29.7235L67.2447 61.9313L56.7322 55.8618Z" fill="white" stroke="#A6915C" stroke-width="3" stroke-linejoin="round"/>
<circle cx="60.8064" cy="60.8064" r="7.30645" fill="white" stroke="#A6915C" stroke-width="3"/>
<path d="M67.2715 31H64.3418L58.6387 21.6445V31H55.709V16.7812H58.6387L64.3516 26.1562V16.7812H67.2715V31Z" fill="#A6915C"/>
<path d="M63.9902 105.27C63.9902 104.716 63.7949 104.293 63.4043 104C63.0137 103.701 62.3105 103.388 61.2949 103.062C60.2793 102.73 59.4753 102.405 58.8828 102.086C57.2682 101.214 56.4609 100.038 56.4609 98.5605C56.4609 97.7923 56.6758 97.1087 57.1055 96.5098C57.5417 95.9043 58.1634 95.4323 58.9707 95.0938C59.7845 94.7552 60.696 94.5859 61.7051 94.5859C62.7207 94.5859 63.6257 94.7715 64.4199 95.1426C65.2142 95.5072 65.8294 96.0247 66.2656 96.6953C66.7083 97.3659 66.9297 98.1276 66.9297 98.9805H64C64 98.3294 63.7949 97.8249 63.3848 97.4668C62.9746 97.1022 62.3984 96.9199 61.6562 96.9199C60.9401 96.9199 60.3835 97.0729 59.9863 97.3789C59.5892 97.6784 59.3906 98.0755 59.3906 98.5703C59.3906 99.0326 59.6217 99.4199 60.084 99.7324C60.5527 100.045 61.2396 100.338 62.1445 100.611C63.8112 101.113 65.0254 101.734 65.7871 102.477C66.5488 103.219 66.9297 104.143 66.9297 105.25C66.9297 106.48 66.4642 107.447 65.5332 108.15C64.6022 108.847 63.349 109.195 61.7734 109.195C60.6797 109.195 59.6836 108.997 58.7852 108.6C57.8867 108.196 57.1999 107.646 56.7246 106.949C56.2559 106.253 56.0215 105.445 56.0215 104.527H58.9609C58.9609 106.096 59.8984 106.881 61.7734 106.881C62.4701 106.881 63.0137 106.741 63.4043 106.461C63.7949 106.174 63.9902 105.777 63.9902 105.27Z" fill="#A6915C"/>
<path d="M105.699 63.8379H100.074V67.6465H106.676V70H97.1445V55.7812H106.656V58.1543H100.074V61.543H105.699V63.8379Z" fill="#A6915C"/>
<path d="M25.0938 65.8984L27.0078 55.7812H29.9277L26.7734 70H23.8242L21.5098 60.4883L19.1953 70H16.2461L13.0918 55.7812H16.0117L17.9355 65.8789L20.2793 55.7812H22.7598L25.0938 65.8984Z" fill="#A6915C"/>
</svg>
