<svg width="194" height="51" viewBox="0 0 194 51" fill="none" xmlns="http://www.w3.org/2000/svg">
<path d="M168.642 18.9446L159.872 15.5772L145 40.3733L168.642 50.4754L193.428 40.3733L177.412 15.5772L168.642 18.9446Z" fill="#A6915C"/>
<path d="M168.642 14.7052L161.397 11.9501L168.642 0.0112305L176.269 11.9501L168.642 14.7052Z" fill="#A6915C"/>
<path d="M168.648 14.7132V0L176.273 11.9517L168.648 14.7132Z" fill="#C1B390" fill-opacity="0.71"/>
<path d="M177.403 15.5734L168.648 18.9235V50.4659L193.405 40.3821L177.403 15.5734Z" fill="#C1B390" fill-opacity="0.71"/>
<path d="M15.6406 40V12.738H19.5106C22.9506 12.738 23.1656 13.899 23.4666 16.909H24.7996L24.5846 11.061H2.95561L2.74061 16.909H4.07361C4.33161 13.942 4.67561 12.738 8.02961 12.738H11.8996V40H15.6406ZM33.0593 12.996C33.0593 11.706 31.9413 10.588 30.6513 10.588C29.3183 10.588 28.2003 11.62 28.2003 12.996C28.2003 14.372 29.3183 15.404 30.6513 15.404C31.9843 15.404 33.0593 14.329 33.0593 12.996ZM32.4573 40V19.532L25.9213 20.564V21.295C27.7703 21.467 29.1463 21.94 29.1463 24.133V40H32.4573ZM52.8914 38.28C51.9024 38.538 50.8704 38.796 49.8384 38.796C44.5064 38.796 40.8514 33.55 40.8514 28.562V27.659H53.4074V27.014C53.4074 22.456 50.7844 19.532 46.1834 19.532C39.7334 19.532 37.5404 23.402 37.5404 29.379C37.5404 35.915 40.6794 40.473 47.5594 40.473C49.0644 40.473 51.4724 40.258 52.8914 39.699V38.28ZM49.6664 26.197H40.8944C41.1524 23.402 42.5714 21.209 45.6244 21.209C48.2044 21.209 49.6664 23.402 49.6664 25.81V26.197ZM61.8058 40V29.68C61.8058 26.498 62.7088 22.843 66.5788 22.843C67.0518 22.843 67.5248 23.015 67.9978 23.144V19.575C67.8688 19.532 67.7398 19.532 67.6108 19.532C64.1708 19.532 62.7948 21.725 61.8918 24.649H61.8058V19.532L55.2268 20.564V21.295C57.2048 21.467 58.4948 21.983 58.4948 24.262V40H61.8058ZM82.0343 40.473C91.3223 40.473 93.2143 33.464 93.2143 25.552C93.2143 17.812 91.1503 10.588 82.0343 10.588C72.7033 10.588 70.7683 17.597 70.7683 25.552C70.7683 33.421 72.7463 40.473 82.0343 40.473ZM82.0343 38.796C75.1543 38.796 74.9823 30.54 74.9823 25.552C74.9823 20.521 75.1113 12.265 82.0343 12.265C88.8713 12.265 89.0003 20.607 89.0003 25.552C89.0003 30.497 88.8713 38.796 82.0343 38.796ZM115.311 40V24.692C115.311 21.08 113.892 19.532 110.194 19.532C106.797 19.532 104.174 22.241 103.013 25.251H102.927V19.532L96.3483 20.564V21.295C98.2403 21.467 99.6163 21.94 99.6163 24.133V40H102.927V29.766C102.927 26.971 105.808 21.639 108.99 21.639C112 21.639 112 23.746 112 26.111V40H115.311ZM135.784 38.28C134.795 38.538 133.763 38.796 132.731 38.796C127.399 38.796 123.744 33.55 123.744 28.562V27.659H136.3V27.014C136.3 22.456 133.677 19.532 129.076 19.532C122.626 19.532 120.433 23.402 120.433 29.379C120.433 35.915 123.572 40.473 130.452 40.473C131.957 40.473 134.365 40.258 135.784 39.699V38.28ZM132.559 26.197H123.787C124.045 23.402 125.464 21.209 128.517 21.209C131.097 21.209 132.559 23.402 132.559 25.81V26.197Z" fill="black"/>
</svg>
