<svg width="140" height="93" viewBox="0 0 140 93" fill="none" xmlns="http://www.w3.org/2000/svg">
<path d="M68.8751 18.8198L60.728 15.5678L46.9134 39.5142L68.8751 49.2701L91.8994 39.5142L77.0221 15.5678L68.8751 18.8198Z" fill="#A6915C"/>
<path d="M68.8751 14.7257L62.1449 12.065L68.8751 0.535278L75.9595 12.065L68.8751 14.7257Z" fill="#A6915C"/>
<path d="M68.8705 14.9953V0L76.3682 12.3176L68.8705 14.9953Z" fill="#C1B390" fill-opacity="0.71"/>
<path d="M77.1715 15.2631L68.8705 18.4764V49.5381L92.1669 39.6305L77.1715 15.2631Z" fill="#C1B390" fill-opacity="0.71"/>
<path d="M16.9048 84V57.372H20.6848C24.0448 57.372 24.2548 58.506 24.5488 61.446H25.8508L25.6408 55.734H4.51478L4.30478 61.446H5.60678C5.85878 58.548 6.19478 57.372 9.47078 57.372H13.2508V84H16.9048ZM33.9184 57.624C33.9184 56.364 32.8264 55.272 31.5664 55.272C30.2644 55.272 29.1724 56.28 29.1724 57.624C29.1724 58.968 30.2644 59.976 31.5664 59.976C32.8684 59.976 33.9184 58.926 33.9184 57.624ZM33.3304 84V64.008L26.9464 65.016V65.73C28.7524 65.898 30.0964 66.36 30.0964 68.502V84H33.3304ZM53.2893 82.32C52.3233 82.572 51.3153 82.824 50.3073 82.824C45.0993 82.824 41.5293 77.7 41.5293 72.828V71.946H53.7933V71.316C53.7933 66.864 51.2313 64.008 46.7373 64.008C40.4373 64.008 38.2953 67.788 38.2953 73.626C38.2953 80.01 41.3613 84.462 48.0813 84.462C49.5513 84.462 51.9033 84.252 53.2893 83.706V82.32ZM50.1393 70.518H41.5713C41.8233 67.788 43.2093 65.646 46.1913 65.646C48.7113 65.646 50.1393 67.788 50.1393 70.14V70.518ZM61.9964 84V73.92C61.9964 70.812 62.8784 67.242 66.6584 67.242C67.1204 67.242 67.5824 67.41 68.0444 67.536V64.05C67.9184 64.008 67.7924 64.008 67.6664 64.008C64.3064 64.008 62.9624 66.15 62.0804 69.006H61.9964V64.008L55.5704 65.016V65.73C57.5024 65.898 58.7624 66.402 58.7624 68.628V84H61.9964ZM81.7544 84.462C90.8264 84.462 92.6744 77.616 92.6744 69.888C92.6744 62.328 90.6584 55.272 81.7544 55.272C72.6404 55.272 70.7504 62.118 70.7504 69.888C70.7504 77.574 72.6824 84.462 81.7544 84.462ZM81.7544 82.824C75.0344 82.824 74.8664 74.76 74.8664 69.888C74.8664 64.974 74.9924 56.91 81.7544 56.91C88.4324 56.91 88.5584 65.058 88.5584 69.888C88.5584 74.718 88.4324 82.824 81.7544 82.824ZM114.258 84V69.048C114.258 65.52 112.872 64.008 109.26 64.008C105.942 64.008 103.38 66.654 102.246 69.594H102.162V64.008L95.7355 65.016V65.73C97.5835 65.898 98.9275 66.36 98.9275 68.502V84H102.162V74.004C102.162 71.274 104.976 66.066 108.084 66.066C111.024 66.066 111.024 68.124 111.024 70.434V84H114.258ZM134.254 82.32C133.288 82.572 132.28 82.824 131.272 82.824C126.064 82.824 122.494 77.7 122.494 72.828V71.946H134.758V71.316C134.758 66.864 132.196 64.008 127.702 64.008C121.402 64.008 119.26 67.788 119.26 73.626C119.26 80.01 122.326 84.462 129.046 84.462C130.516 84.462 132.868 84.252 134.254 83.706V82.32ZM131.104 70.518H122.536C122.788 67.788 124.174 65.646 127.156 65.646C129.676 65.646 131.104 67.788 131.104 70.14V70.518Z" fill="black"/>
</svg>
